<?xml version="1.0" encoding="UTF-8"?>
<svg version="1.1" xmlns="http://www.w3.org/2000/svg" width="32" height="32">
<path d="M0 0 C1.3921875 0.2784375 1.3921875 0.2784375 2.8125 0.5625 C6.01343771 1.24123881 6.01343771 1.24123881 9 0 C10.64371491 -0.09329934 12.29114677 -0.12995144 13.9375 -0.125 C15.21947266 -0.12886719 15.21947266 -0.12886719 16.52734375 -0.1328125 C18.83269788 -0.00898621 20.77292143 0.44205821 23 1 C25.68149993 0.61432869 25.68149993 0.61432869 28 0 C27.979375 1.093125 27.95875 2.18625 27.9375 3.3125 C27.81455548 6.94384191 27.81455548 6.94384191 29 10 C28.01 11.485 28.01 11.485 27 13 C26.34 13 25.68 13 25 13 C24.71125 13.639375 24.4225 14.27875 24.125 14.9375 C23 17 23 17 21 18 C21.66 18.639375 22.32 19.27875 23 19.9375 C25 23 25 23 25 32 C17.74 32 10.48 32 3 32 C3 23 3 23 5 19.9375 C5.66 19.298125 6.32 18.65875 7 18 C6.34 17.54625 5.68 17.0925 5 16.625 C4.34 16.08875 3.68 15.5525 3 15 C3 14.34 3 13.68 3 13 C1.68 12.34 0.36 11.68 -1 11 C-0.67 7.37 -0.34 3.74 0 0 Z " fill="#131518" transform="translate(2,0)"/>
<path d="M0 0 C3.01568187 3.29840204 2.42089949 6.46729174 2.2734375 10.7890625 C2 13.1875 2 13.1875 1 14.1875 C-1.69654854 14.26069621 -4.36691458 14.27992537 -7.0625 14.25 C-8.20041992 14.24323242 -8.20041992 14.24323242 -9.36132812 14.23632812 C-11.24091871 14.2245068 -13.12046899 14.20657078 -15 14.1875 C-15.28617188 13.55328125 -15.57234375 12.9190625 -15.8671875 12.265625 C-17.22655542 9.77188799 -18.41080309 9.22317876 -21 8.1875 C-20.34 7.1975 -19.68 6.2075 -19 5.1875 C-18.34 5.1875 -17.68 5.1875 -17 5.1875 C-16.7525 4.56875 -16.505 3.95 -16.25 3.3125 C-12.81910065 -2.5200289 -5.75868407 -1.5596436 0 0 Z " fill="#627993" transform="translate(23,1.8125)"/>
<path d="M0 0 C2.625 1.5 2.625 1.5 4 4 C4.30531089 6.75832593 4.18619218 9.20711727 4 12 C3.01 12.33 2.02 12.66 1 13 C-2 11 -2 11 -2.75 8.5625 C-3 6 -3 6 -2 3 C-2.66 3.66 -3.32 4.32 -4 5 C-3.67673447 8.59679066 -3.67673447 8.59679066 -3 12 C-6.96 12 -10.92 12 -15 12 C-15.40877691 7.83047551 -15.40933517 5.64129177 -13.125 2.0625 C-8.75025888 -0.82482914 -5.10179588 -0.9033534 0 0 Z " fill="#E7E9F0" transform="translate(21,19)"/>
<path d="M0 0 C0.66 0.66 1.32 1.32 2 2 C1.01 2.495 1.01 2.495 0 3 C0.33 3.66 0.66 4.32 1 5 C-2.3 5.33 -5.6 5.66 -9 6 C-9 7.98 -9 9.96 -9 12 C-10.32 11.67 -11.64 11.34 -13 11 C-13.33 11.66 -13.66 12.32 -14 13 C-14 12.34 -14 11.68 -14 11 C-15.32 10.34 -16.64 9.68 -18 9 C-17.34 8.01 -16.68 7.02 -16 6 C-15.34 6 -14.68 6 -14 6 C-13.7525 5.38125 -13.505 4.7625 -13.25 4.125 C-10.23916124 -0.99342589 -5.33699136 -0.34432202 0 0 Z " fill="#58718C" transform="translate(20,1)"/>
<path d="M0 0 C1.134375 0.020625 2.26875 0.04125 3.4375 0.0625 C3.4375 2.0425 3.4375 4.0225 3.4375 6.0625 C4.0975 6.0625 4.7575 6.0625 5.4375 6.0625 C5.4375 4.4125 5.4375 2.7625 5.4375 1.0625 C6.0975 1.0625 6.7575 1.0625 7.4375 1.0625 C7.480221 2.72861905 7.47813832 4.39632885 7.4375 6.0625 C6.4375 7.0625 6.4375 7.0625 4.1875 7.1953125 C3.28 7.19273438 2.3725 7.19015625 1.4375 7.1875 C0.07625 7.19136719 0.07625 7.19136719 -1.3125 7.1953125 C-3.5625 7.0625 -3.5625 7.0625 -4.5625 6.0625 C-4.6875 3.5625 -4.6875 3.5625 -4.5625 1.0625 C-3.5625 0.0625 -3.5625 0.0625 0 0 Z " fill="#B0B1B8" transform="translate(14.5625,5.9375)"/>
<path d="M0 0 C1.32 0.33 2.64 0.66 4 1 C4.33 3.97 4.66 6.94 5 10 C1.04 10 -2.92 10 -7 10 C-7 7.69 -7 5.38 -7 3 C-6.01 4.485 -6.01 4.485 -5 6 C-2.94074861 6.72382467 -2.94074861 6.72382467 -1 7 C-0.67 4.69 -0.34 2.38 0 0 Z " fill="#6C7D92" transform="translate(13,21)"/>
<path d="M0 0 C1.3921875 0.2784375 1.3921875 0.2784375 2.8125 0.5625 C6.01343771 1.24123881 6.01343771 1.24123881 9 0 C10.66267874 -0.14220279 12.3315173 -0.22020567 14 -0.25 C15.299375 -0.28867188 15.299375 -0.28867188 16.625 -0.328125 C19.42903194 0.05927415 20.26286782 0.82858478 22 3 C21.505 2.835 21.01 2.67 20.5 2.5 C15.76081006 1.55216201 11.64792064 1.25094516 7.25 3.25 C4.97127644 5.02234055 2.96627956 6.8880701 1 9 C-0.06546953 5.8035914 -0.07427838 3.34252724 0 0 Z " fill="#12090C" transform="translate(2,0)"/>
<path d="M0 0 C1.32 0 2.64 0 4 0 C3.94004678 1.79260132 3.8512759 3.58425795 3.75 5.375 C3.70359375 6.37273438 3.6571875 7.37046875 3.609375 8.3984375 C3 11 3 11 0.953125 12.3515625 C0.30859375 12.56554688 -0.3359375 12.77953125 -1 13 C-1.22151549 11.20991533 -1.42682213 9.41781838 -1.625 7.625 C-1.74101562 6.62726562 -1.85703125 5.62953125 -1.9765625 4.6015625 C-1.98429687 3.74304688 -1.99203125 2.88453125 -2 2 C-1.34 1.34 -0.68 0.68 0 0 Z " fill="#292834" transform="translate(26,0)"/>
<path d="M0 0 C1.32 0.66 2.64 1.32 4 2 C3.34 2 2.68 2 2 2 C2.2784375 3.1446875 2.2784375 3.1446875 2.5625 4.3125 C3 7 3 7 2 10 C-0.97 9.505 -0.97 9.505 -4 9 C-4.25 6.1875 -4.25 6.1875 -4 3 C-2 1.125 -2 1.125 0 0 Z " fill="#DADDE8" transform="translate(11,19)"/>
<path d="M0 0 C3.63 0 7.26 0 11 0 C11.33 1.65 11.66 3.3 12 5 C10.35 4.67 8.7 4.34 7 4 C7 5.65 7 7.3 7 9 C6.34 9 5.68 9 5 9 C5 7.02 5 5.04 5 3 C5.66 2.67 6.32 2.34 7 2 C4.69 1.67 2.38 1.34 0 1 C0 0.67 0 0.34 0 0 Z " fill="#8FA9C5" transform="translate(13,3)"/>
<path d="M0 0 C4.62 0.66 9.24 1.32 14 2 C13.67 2.66 13.34 3.32 13 4 C9.04 4 5.08 4 1 4 C0.67 2.68 0.34 1.36 0 0 Z " fill="#75A5D7" transform="translate(7,12)"/>
<path d="M0 0 C0.33 0 0.66 0 1 0 C1 2.97 1 5.94 1 9 C0.67 8.34 0.34 7.68 0 7 C-2.01669827 5.86649466 -2.01669827 5.86649466 -4 5 C-3.34 4.01 -2.68 3.02 -2 2 C-1.34 2 -0.68 2 0 2 C0 1.34 0 0.68 0 0 Z " fill="#354D73" transform="translate(6,5)"/>
<path d="M0 0 C0.99 1.485 0.99 1.485 2 3 C2.99 3.33 3.98 3.66 5 4 C5.33 4.99 5.66 5.98 6 7 C4.02 7 2.04 7 0 7 C0 4.69 0 2.38 0 0 Z " fill="#807D84" transform="translate(6,24)"/>
<path d="M0 0 C1.134375 0.020625 2.26875 0.04125 3.4375 0.0625 C3.4375 1.7125 3.4375 3.3625 3.4375 5.0625 C2.7775 3.7425 2.1175 2.4225 1.4375 1.0625 C0.7775 1.0625 0.1175 1.0625 -0.5625 1.0625 C-1.2225 2.3825 -1.8825 3.7025 -2.5625 5.0625 C-3.2225 3.7425 -3.8825 2.4225 -4.5625 1.0625 C-3.5625 0.0625 -3.5625 0.0625 0 0 Z " fill="#E8EAF2" transform="translate(14.5625,5.9375)"/>
<path d="M0 0 C0.33 1.32 0.66 2.64 1 4 C0.01 4.33 -0.98 4.66 -2 5 C-2.99 4.34 -3.98 3.68 -5 3 C-5 2.34 -5 1.68 -5 1 C-2 0 -2 0 0 0 Z " fill="#A2A0A4" transform="translate(24,27)"/>
<path d="M0 0 C0.66 0 1.32 0 2 0 C2 1.32 2 2.64 2 4 C2.66 4.66 3.32 5.32 4 6 C3.01 6.99 2.02 7.98 1 9 C0.63877119 7.68942607 0.28619689 6.37646376 -0.0625 5.0625 C-0.35833984 3.96615234 -0.35833984 3.96615234 -0.66015625 2.84765625 C-0.77230469 2.23792969 -0.88445313 1.62820312 -1 1 C-0.67 0.67 -0.34 0.34 0 0 Z " fill="#39353A" transform="translate(17,22)"/>
</svg>
